<svg xmlns="http://www.w3.org/2000/svg" viewBox="0 0 128 128" width="1024" height="1024">
  <defs>
    <linearGradient id="rvr-bg" x1="0" y1="0" x2="0" y2="1">
      <stop offset="0" stop-color="#101c12"/>
      <stop offset="0.55" stop-color="#0a140c"/>
      <stop offset="1" stop-color="#060a07"/>
    </linearGradient>
    <linearGradient id="rvr-edge" x1="0" y1="0" x2="0" y2="1">
      <stop offset="0" stop-color="#ffffff" stop-opacity="0.22"/>
      <stop offset="0.3" stop-color="#ffffff" stop-opacity="0.05"/>
      <stop offset="0.7" stop-color="#ffffff" stop-opacity="0"/>
    </linearGradient>
    <radialGradient id="rvr-glow" cx="0.5" cy="0.46" r="0.55">
      <stop offset="0" stop-color="#2bff6a" stop-opacity="0.20"/>
      <stop offset="0.6" stop-color="#2bff6a" stop-opacity="0.07"/>
      <stop offset="1" stop-color="#2bff6a" stop-opacity="0"/>
    </radialGradient>
    <linearGradient id="rvr-bracket" x1="0" y1="0" x2="1" y2="1">
      <stop offset="0" stop-color="#6dff9e"/>
      <stop offset="0.5" stop-color="#2bff6a"/>
      <stop offset="1" stop-color="#00c24d"/>
    </linearGradient>
    <linearGradient id="rvr-glyph" x1="0" y1="0" x2="0" y2="1">
      <stop offset="0" stop-color="#ffffff"/>
      <stop offset="1" stop-color="#dcffe8"/>
    </linearGradient>
    <filter id="rvr-glyphGlow" x="-60%" y="-40%" width="220%" height="180%">
      <feDropShadow dx="0" dy="0" stdDeviation="3" flood-color="#2bff6a" flood-opacity="0.45"/>
    </filter>
  </defs>
  <g transform="translate(64 64) scale(0.858) translate(-64 -64)">
  <rect x="4" y="4" width="120" height="120" rx="28" fill="url(#rvr-bg)"/>
  <rect x="4" y="4" width="120" height="120" rx="28" fill="url(#rvr-glow)"/>
  <rect x="5.2" y="5.2" width="117.6" height="117.6" rx="27" fill="none" stroke="url(#rvr-edge)" stroke-width="2.4"/>
  <g stroke="url(#rvr-bracket)" stroke-width="7.5" fill="none" stroke-linecap="round">
    <path d="M25 41 V33.5 a8.5 8.5 0 0 1 8.5 -8.5 H41"/>
    <path d="M87 25 h7.5 a8.5 8.5 0 0 1 8.5 8.5 V41"/>
    <path d="M103 87 v7.5 a8.5 8.5 0 0 1 -8.5 8.5 H87"/>
    <path d="M41 103 H33.5 a8.5 8.5 0 0 1 -8.5 -8.5 V87"/>
  </g>
  <path d="M81 91 V37.5 H63.5 a17.2 17.2 0 0 0 0 34.4 H74 M65.5 71.5 L49.5 91"
        transform="translate(64 63) scale(0.92) translate(-64 -64)"
        fill="none" stroke="url(#rvr-glyph)" stroke-width="10.5"
        stroke-linecap="round" stroke-linejoin="round"
        filter="url(#rvr-glyphGlow)"/>
  </g>
</svg>
